<svg xmlns="http://www.w3.org/2000/svg" xmlns:v="https://vecta.io/nano">
  <defs>
    <g id="logo-text">
      <path d="M62.982 61.27s-22.514 82.642-28.498 88.627l93.475-19.094s-24.224-1.14-16.529-19.663l-44.885 10.402 6.27-19.949 50.157-33.627L79.654 76.8l7.125-22.228-23.796 6.697zm128.954-40.609l-24.793 24.223-26.789 6.554s-7.409 1.995-9.689 9.404l-15.104 51.58c-1.71 5.7 1.71 12.75 9.547 11.22s43.745-9.795 43.745-9.795l5.414-17.668-37.618 8.834 12.255-41.036 13.394-3.135-4.56 15.959 11.969-2.85s6.84-1.425 9.12-8.834l13.109-44.456zM206.613 0l-38.188 126.813 17.384-4.274s4.844-.855 8.834-14.534l17.384-58.989 20.804-4.559-30.208 99.171L210.887 165l15.959-47.876 23.084-5.699s-16.957-8.122-12.682-19.806l15.959-53.29s1.14-4.275-1.995-7.409-7.409-3.99-14.249-2.565l-19.664 3.99-1.282 2.992L206.613 0zm112.995 13.536c-4.844-2.565-8.264-1.425-8.264-1.425l-37.048 9.119s-4.56 1.425-7.124 4.275-3.705 6.554-3.705 6.554l-17.954 60.7s-1.482 5.192 2.565 8.834c2.85 2.565 8.549 1.14 8.549 1.14l36.193-8.834s4.275-.855 7.695-4.275 5.414-10.544 5.414-10.544l16.814-56.425s1.71-6.554-3.135-9.119zM285.98 78.225l-17.953 4.56 14.249-46.736 17.954-4.275-14.25 46.451zM0 45.596c1.14 0 80.935-17.668 80.935-17.668s10.259-1.71 14.249 1.425l92.905-23.938s-30.208 28.782-32.488 29.922c-.311.154-.798.835-90.465 19.378 0 0 1.265-6.839-.73-6.839S0 45.596 0 45.596zm266.887 89.909l8.028-31.532 27.452-6.797-3.277 8.692-17.669 4.845-1.14 4.844 12.254-3.135-2.137 7.267-11.542 2.992-2.707 10.687-9.262 2.137zm38.045-38.614l-9.69 32.202 9.69-2.28 4.559-13.678 10.545-2.565-3.705 13.964 9.404-2.28L334 88.627l-29.068 8.264zm16.529 6.555l-10.545 2.849 1.425-5.129 10.83-2.565-1.71 4.845z"/>
    </g>
    <g id="e">
      <path d="M60.5702 53.7183C60.5702 53.7183 38.9184 133.2 33.1628 138.955L123.059 120.592C123.059 120.592 99.7627 119.496 107.163 101.681L63.9961 111.685L70.0258 92.4997L118.263 60.159L76.6035 68.6553L83.4554 47.2776L60.5702 53.7183Z M0 38.6444C1.09629 38.6444 77.8369 21.6518 77.8369 21.6518C77.8369 21.6518 87.7036 20.0074 91.5406 23.0222L180.889 0C180.889 0 151.837 27.6814 149.644 28.7777C149.345 28.9257 148.877 29.5808 62.6423 47.4147C62.6423 47.4147 63.8592 40.837 61.9406 40.837C60.0221 40.837 0 38.6444 0 38.6444Z"/>
    </g>
    <g id="fr">
      <path d="M1.12862 26.1905L3.06456 11.0327L13.9368 8.05344L12.0008 23.2112L1.12862 26.1905Z" fill="#537DFD"/>
      <path d="M13.0961 23.0633L14.8708 7.90719L24.9044 4.93686L23.1297 20.0929L13.0961 23.0633Z" fill="white"/>
      <path d="M24.0634 19.9466L25.9994 4.78884L36.8716 1.8096L34.9356 16.9674L24.0634 19.9466Z" fill="#FD5391"/>
    </g>
    <g id="rp">
      <path d="M57.2504 15.3345L18.3097 26.2292L0 83L18.3097 78.7879L23.9411 62.0185L39.0344 58.3467L44.7594 74.0828L61.6223 69.362L55.1686 54.3707C67.1391 53.0174 69.0075 43.6596 69.0075 43.6596C69.0075 43.6596 72.3437 31.5952 73.9051 22.1535C75.4664 12.7118 57.2504 15.3345 57.2504 15.3345ZM56.2095 35.267C55.1686 41.5615 51.0049 42.6105 51.0049 42.6105L28.6252 47.8559L32.7889 34.7425L57.2504 29.4971L56.2095 35.267Z M136.849 1.95146C133.202 -1.17087 127.472 0.390291 127.472 0.390291L83.7122 10.2777L66 67L82.6859 63.0346L88.9216 46.7049L121.371 39.1592C121.371 39.1592 133.202 35.7767 136.328 24.8485C139.453 13.9204 139.974 11.3184 139.974 11.3184C139.974 11.3184 140.495 5.07379 136.849 1.95146ZM121.1 19.3793C120.059 25.6239 115.891 26.6647 115.891 26.6647L93.4903 31.8686L97.6579 18.8589L122.142 13.655L121.1 19.3793Z"/>
    </g>
    <g id="line-1">
      <path d="M0 78C2.33333 61.3333 7 26.8 7 22V67L196 0L0 78Z" />
    </g>
    <g id="line-right">
      <path d="M0 0L460 189L443.571 162.346L0 0Z"/>
    </g>
    <g id="line-left">
      <path d="M460 0L0 189L16.4286 162.346L460 0Z"/>
    </g>
    <g id="corner">
      <path d="M34.5 25.5H0.5L35.5 27L52.5 0.5L34.5 25.5Z"/>
    </g>
    <g id="corner-bottom-right">
      <use href="#corner"/>
    </g>
    <g id="corner-bottom-left">
      <g transform="translate(53, 0)">
        <use href="#corner" transform="scale(-1,1)"/>
      </g>
    </g>
    <g id="corner-top-right">
      <g transform="translate(53, 27)">
        <use href="#corner" transform="scale(-1,-1)"/>
      </g>
    </g>
    <g id="corner-top-left">
      <g transform="translate(0, 27)">
        <use href="#corner" transform="scale(1,-1)"/>
      </g>
    </g>
    <g id="blur">
      <g filter="url(#blurer)">
        <circle cx="233.5" cy="233.5" r="83.5" />
      </g>
    </g>
    <g id="triangle">
      <path fill="currentColor" d="M59 0L0 71H59V0Z M59 0L118 71H59V0Z"/>
    </g>
    <filter
      id="blurer"
      x="0"
      y="0"
      width="467"
      height="467"
      filterUnits="userSpaceOnUse"
      color-interpolation-filters="sRGB"
    >
      <feFlood flood-opacity="0" />
      <feBlend in="SourceGraphic" />
      <feGaussianBlur stdDeviation="75" />
    </filter>
  </defs> 
</svg>